<svg aria-labelledby="chart-title-my-svg" aria-roledescription="gitGraph" role="graphics-document document" viewBox="-117.1484375 -49 575.1484375 204.57765197753906" height="204.57765197753906" xmlns:xlink="http://www.w3.org/1999/xlink" xmlns="http://www.w3.org/2000/svg" width="575.1484375" id="my-svg" style="background-color: white;"><title id="chart-title-my-svg">Example Git diagram</title><style>#my-svg{font-family:"trebuchet ms",verdana,arial,sans-serif;font-size:16px;fill:#333;}#my-svg .error-icon{fill:#552222;}#my-svg .error-text{fill:#552222;stroke:#552222;}#my-svg .edge-thickness-normal{stroke-width:2px;}#my-svg .edge-thickness-thick{stroke-width:3.5px;}#my-svg .edge-pattern-solid{stroke-dasharray:0;}#my-svg .edge-pattern-dashed{stroke-dasharray:3;}#my-svg .edge-pattern-dotted{stroke-dasharray:2;}#my-svg .marker{fill:#333333;stroke:#333333;}#my-svg .marker.cross{stroke:#333333;}#my-svg svg{font-family:"trebuchet ms",verdana,arial,sans-serif;font-size:16px;}#my-svg .commit-id,#my-svg .commit-msg,#my-svg .branch-label{fill:lightgrey;color:lightgrey;font-family:'trebuchet ms',verdana,arial,sans-serif;font-family:var(--mermaid-font-family);}#my-svg .branch-label0{fill:#ffffff;}#my-svg .commit0{stroke:hsl(240, 100%, 46.2745098039%);fill:hsl(240, 100%, 46.2745098039%);}#my-svg .commit-highlight0{stroke:hsl(60, 100%, 3.7254901961%);fill:hsl(60, 100%, 3.7254901961%);}#my-svg .label0{fill:hsl(240, 100%, 46.2745098039%);}#my-svg .arrow0{stroke:hsl(240, 100%, 46.2745098039%);}#my-svg .branch-label1{fill:black;}#my-svg .commit1{stroke:hsl(60, 100%, 43.5294117647%);fill:hsl(60, 100%, 43.5294117647%);}#my-svg .commit-highlight1{stroke:rgb(0, 0, 160.5);fill:rgb(0, 0, 160.5);}#my-svg .label1{fill:hsl(60, 100%, 43.5294117647%);}#my-svg .arrow1{stroke:hsl(60, 100%, 43.5294117647%);}#my-svg .branch-label2{fill:black;}#my-svg .commit2{stroke:hsl(80, 100%, 46.2745098039%);fill:hsl(80, 100%, 46.2745098039%);}#my-svg .commit-highlight2{stroke:rgb(48.8333333334, 0, 146.5000000001);fill:rgb(48.8333333334, 0, 146.5000000001);}#my-svg .label2{fill:hsl(80, 100%, 46.2745098039%);}#my-svg .arrow2{stroke:hsl(80, 100%, 46.2745098039%);}#my-svg .branch-label3{fill:#ffffff;}#my-svg .commit3{stroke:hsl(210, 100%, 46.2745098039%);fill:hsl(210, 100%, 46.2745098039%);}#my-svg .commit-highlight3{stroke:rgb(146.5000000001, 73.2500000001, 0);fill:rgb(146.5000000001, 73.2500000001, 0);}#my-svg .label3{fill:hsl(210, 100%, 46.2745098039%);}#my-svg .arrow3{stroke:hsl(210, 100%, 46.2745098039%);}#my-svg .branch-label4{fill:black;}#my-svg .commit4{stroke:hsl(180, 100%, 46.2745098039%);fill:hsl(180, 100%, 46.2745098039%);}#my-svg .commit-highlight4{stroke:rgb(146.5000000001, 0, 0);fill:rgb(146.5000000001, 0, 0);}#my-svg .label4{fill:hsl(180, 100%, 46.2745098039%);}#my-svg .arrow4{stroke:hsl(180, 100%, 46.2745098039%);}#my-svg .branch-label5{fill:black;}#my-svg .commit5{stroke:hsl(150, 100%, 46.2745098039%);fill:hsl(150, 100%, 46.2745098039%);}#my-svg .commit-highlight5{stroke:rgb(146.5000000001, 0, 73.2500000001);fill:rgb(146.5000000001, 0, 73.2500000001);}#my-svg .label5{fill:hsl(150, 100%, 46.2745098039%);}#my-svg .arrow5{stroke:hsl(150, 100%, 46.2745098039%);}#my-svg .branch-label6{fill:black;}#my-svg .commit6{stroke:hsl(300, 100%, 46.2745098039%);fill:hsl(300, 100%, 46.2745098039%);}#my-svg .commit-highlight6{stroke:rgb(0, 146.5000000001, 0);fill:rgb(0, 146.5000000001, 0);}#my-svg .label6{fill:hsl(300, 100%, 46.2745098039%);}#my-svg .arrow6{stroke:hsl(300, 100%, 46.2745098039%);}#my-svg .branch-label7{fill:black;}#my-svg .commit7{stroke:hsl(0, 100%, 46.2745098039%);fill:hsl(0, 100%, 46.2745098039%);}#my-svg .commit-highlight7{stroke:rgb(0, 146.5000000001, 146.5000000001);fill:rgb(0, 146.5000000001, 146.5000000001);}#my-svg .label7{fill:hsl(0, 100%, 46.2745098039%);}#my-svg .arrow7{stroke:hsl(0, 100%, 46.2745098039%);}#my-svg .branch{stroke-width:1;stroke:#333333;stroke-dasharray:2;}#my-svg .commit-label{font-size:10px;fill:#000021;}#my-svg .commit-label-bkg{font-size:10px;fill:#ffffde;opacity:0.5;}#my-svg .tag-label{font-size:10px;fill:#131300;}#my-svg .tag-label-bkg{fill:#ECECFF;stroke:hsl(240, 60%, 86.2745098039%);}#my-svg .tag-hole{fill:#333;}#my-svg .commit-merge{stroke:#ECECFF;fill:#ECECFF;}#my-svg .commit-reverse{stroke:#ECECFF;fill:#ECECFF;stroke-width:3;}#my-svg .commit-highlight-inner{stroke:#ECECFF;fill:#ECECFF;}#my-svg .arrow{stroke-width:8;stroke-linecap:round;fill:none;}#my-svg .gitTitleText{text-anchor:middle;font-size:18px;fill:#333;}#my-svg :root{--mermaid-font-family:"trebuchet ms",verdana,arial,sans-serif;}</style><g/><g class="commit-bullets"/><g class="commit-labels"/><g><line class="branch branch0" y2="0" x2="450" y1="0" x1="0"/><rect transform="translate(-19, -8.5)" height="21" width="52.6875" y="-0.5" x="-68.6875" ry="4" rx="4" class="branchLabelBkg label0"/><g class="branchLabel"><g transform="translate(-78.6875, -9.5)" class="label branch-label0"><text><tspan class="row" x="0" dy="1em" xml:space="preserve">main</tspan></text></g></g><line class="branch branch1" y2="90" x2="450" y1="90" x1="0"/><rect transform="translate(-19, 81.5)" height="21" width="74.1484375" y="-0.5" x="-90.1484375" ry="4" rx="4" class="branchLabelBkg label1"/><g class="branchLabel"><g transform="translate(-100.1484375, 80.5)" class="label branch-label1"><text><tspan class="row" x="0" dy="1em" xml:space="preserve">develop</tspan></text></g></g></g><g class="commit-arrows"><path class="arrow arrow0" d="M 10 0 L 10 0  10 0 L 60 0"/><path class="arrow arrow1" d="M 60 0 L 60 70 A 20 20, 0, 0, 0, 80 90 L 110 90"/><path class="arrow arrow1" d="M 110 90 L 110 90  110 90 L 160 90"/><path class="arrow arrow0" d="M 60 0 L 60 0  60 0 L 210 0"/><path class="arrow arrow1" d="M 160 90 L 190 90 A 20 20, 0, 0, 0, 210 70 L 210 0"/><path class="arrow arrow0" d="M 210 0 L 210 0  210 0 L 260 0"/><path class="arrow arrow0" d="M 260 0 L 260 0  260 0 L 310 0"/><path class="arrow arrow0" d="M 310 0 L 310 0  310 0 L 360 0"/><path class="arrow arrow0" d="M 360 0 L 360 0  360 0 L 410 0"/></g><g class="commit-bullets"><circle class="commit 0-f2b5b2f commit0" r="10" cy="0" cx="10"/><circle class="commit 1-a5b87fe commit0" r="10" cy="0" cx="60"/><circle class="commit 2-9da548f commit1" r="10" cy="90" cx="110"/><circle class="commit 3-dc99d98 commit1" r="10" cy="90" cx="160"/><circle class="commit 4-23f45e7 commit0" r="9" cy="0" cx="210"/><circle class="commit commit-merge 4-23f45e7 commit0" r="6" cy="0" cx="210"/><circle class="commit 5-48079d2 commit0" r="10" cy="0" cx="260"/><circle class="commit 6-8a4c87e commit0" r="10" cy="0" cx="310"/><circle class="commit 7-99a3812 commit0" r="10" cy="0" cx="360"/><circle class="commit 8-92f0a13 commit0" r="10" cy="0" cx="410"/></g><g class="commit-labels"><g transform="translate(-27.44146484375, 24.442363281250003) rotate(-45, 0, 0)"><rect height="15" width="46.4775390625" y="13.5" x="-13.23876953125" class="commit-label-bkg"/><text class="commit-label" y="25" x="-11.23876953125">0-f2b5b2f</text></g><g transform="translate(-28.581464843750002, 25.46236328125) rotate(-45, 50, 0)"><rect height="15" width="49.4775390625" y="13.5" x="35.26123046875" class="commit-label-bkg"/><text class="commit-label" y="25" x="37.26123046875">1-a5b87fe</text></g><g transform="translate(-28.49908203125, 25.388652343750003) rotate(-45, 100, 90)"><rect height="15" width="49.2607421875" y="103.5" x="85.36962890625" class="commit-label-bkg"/><text class="commit-label" y="115" x="87.36962890625">2-9da548f</text></g><g transform="translate(-29.425703125000002, 26.217734375) rotate(-45, 150, 90)"><rect height="15" width="51.69921875" y="103.5" x="134.150390625" class="commit-label-bkg"/><text class="commit-label" y="115" x="136.150390625">3-dc99d98</text></g><g transform="translate(-29.639082031250002, 26.40865234375) rotate(-45, 250, 0)"><rect height="15" width="52.2607421875" y="13.5" x="233.86962890625" class="commit-label-bkg"/><text class="commit-label" y="25" x="235.86962890625">5-48079d2</text></g><g transform="translate(-29.425703125000002, 26.217734375) rotate(-45, 300, 0)"><rect height="15" width="51.69921875" y="13.5" x="284.150390625" class="commit-label-bkg"/><text class="commit-label" y="25" x="286.150390625">6-8a4c87e</text></g><g transform="translate(-29.639082031250002, 26.40865234375) rotate(-45, 350, 0)"><rect height="15" width="52.2607421875" y="13.5" x="333.86962890625" class="commit-label-bkg"/><text class="commit-label" y="25" x="335.86962890625">7-99a3812</text></g><g transform="translate(-28.581464843750002, 25.46236328125) rotate(-45, 400, 0)"><rect height="15" width="49.4775390625" y="13.5" x="385.26123046875" class="commit-label-bkg"/><text class="commit-label" y="25" x="387.26123046875">8-92f0a13</text></g></g><text class="gitTitleText" y="-25" x="170.42578125">Example Git diagram</text></svg>