<?xml version="1.0" encoding="us-ascii" standalone="no"?><svg xmlns="http://www.w3.org/2000/svg" xmlns:xlink="http://www.w3.org/1999/xlink" contentStyleType="text/css" height="180px" preserveAspectRatio="none" style="width:439px;height:180px;background:#FFFFFF;" version="1.1" viewBox="0 0 439 180" width="439px" zoomAndPan="magnify"><defs/><g><!--entity DA--><g id="elem_DA"><ellipse cx="57.5" cy="30" fill="#F1F1F1" rx="8" ry="8" style="stroke:#181818;stroke-width:0.5;"/><text fill="#000000" font-family="sans-serif" font-size="14" lengthAdjust="spacing" textLength="86" x="14.5" y="59.9951">Data Access</text></g><!--entity First Component--><g id="elem_First Component"><rect fill="#F1F1F1" height="46.2969" rx="2.5" ry="2.5" style="stroke:#181818;stroke-width:0.5;" width="155" x="102" y="7"/><rect fill="#F1F1F1" height="10" style="stroke:#181818;stroke-width:0.5;" width="15" x="237" y="12"/><rect fill="#F1F1F1" height="2" style="stroke:#181818;stroke-width:0.5;" width="4" x="235" y="14"/><rect fill="#F1F1F1" height="2" style="stroke:#181818;stroke-width:0.5;" width="4" x="235" y="18"/><text fill="#000000" font-family="sans-serif" font-size="14" lengthAdjust="spacing" textLength="115" x="117" y="39.9951">First Component</text></g><!--entity HTTP--><g id="elem_HTTP"><ellipse cx="179.5" cy="142.5" fill="#F1F1F1" rx="8" ry="8" style="stroke:#181818;stroke-width:0.5;"/><text fill="#000000" font-family="sans-serif" font-size="14" lengthAdjust="spacing" textLength="37" x="161" y="172.4951">HTTP</text></g><g id="elem_GMN7"><path d="M6,130 L6,155.1328 A0,0 0 0 0 6,155.1328 L135,155.1328 A0,0 0 0 0 135,155.1328 L135,148 L170.16,142.5 L135,140 L135,140 L125,130 L6,130 A0,0 0 0 0 6,130 " fill="#FEFFDD" style="stroke:#181818;stroke-width:0.5;"/><path d="M125,130 L125,140 L135,140 L125,130 " fill="#FEFFDD" style="stroke:#181818;stroke-width:0.5;"/><text fill="#000000" font-family="sans-serif" font-size="13" lengthAdjust="spacing" textLength="108" x="12" y="147.0669">Web Service only</text></g><g id="elem_GMN10"><path d="M292.5,10 L292.5,26 L257.06,30 L292.5,34 L292.5,50.2656 A0,0 0 0 0 292.5,50.2656 L432.5,50.2656 A0,0 0 0 0 432.5,50.2656 L432.5,20 L422.5,10 L292.5,10 A0,0 0 0 0 292.5,10 " fill="#FEFFDD" style="stroke:#181818;stroke-width:0.5;"/><path d="M422.5,10 L422.5,20 L432.5,20 L422.5,10 " fill="#FEFFDD" style="stroke:#181818;stroke-width:0.5;"/><text fill="#000000" font-family="sans-serif" font-size="13" lengthAdjust="spacing" textLength="99" x="298.5" y="27.0669">A note can also</text><text fill="#000000" font-family="sans-serif" font-size="13" lengthAdjust="spacing" textLength="119" x="298.5" y="42.1997">be on several lines</text></g><!--link DA to First Component--><g id="link_DA_First Component"><path d="M66.55,30 C78.32,30 90.08,30 101.85,30 " fill="none" id="DA-First Component" style="stroke:#181818;stroke-width:1.0;"/></g><!--link First Component to HTTP--><g id="link_First Component_HTTP"><path d="M179.5,53.1 C179.5,75.47 179.5,109.36 179.5,128.01 " fill="none" id="First Component-to-HTTP" style="stroke:#181818;stroke-width:1.0;stroke-dasharray:7.0,7.0;"/><polygon fill="#181818" points="179.5,133.28,183.5,124.28,179.5,128.28,175.5,124.28,179.5,133.28" style="stroke:#181818;stroke-width:1.0;"/><text fill="#000000" font-family="sans-serif" font-size="13" lengthAdjust="spacing" textLength="23" x="180.5" y="96.0669">use</text></g><!--SRC=[POqn2W8n44NxdEAplNi02o4On59mmK8iPkD40t4YcRZWxLs3Ljk-_pulIkKIo3CwHvLWlMVL3gHmrXXdiS9v5ujMRFFZcOMbNio2eEyts0_30Mkyb8sHN1c9GqKE_-748uvSfZZNigJtpohnTc_QiWDODCUJW9BccOpVCvGdBfIGeh0QbclpFW00]--></g></svg>