<?xml version="1.0" encoding="us-ascii" standalone="no"?><svg xmlns="http://www.w3.org/2000/svg" xmlns:xlink="http://www.w3.org/1999/xlink" contentStyleType="text/css" height="180px" preserveAspectRatio="none" style="width:572px;height:180px;background:#FFFFFF;" version="1.1" viewBox="0 0 572 180" width="572px" zoomAndPan="magnify"><defs/><g><!--entity DA--><g id="elem_DA"><ellipse cx="190.5" cy="30" fill="#F1F1F1" rx="8" ry="8" style="stroke:#181818;stroke-width:0.5;"/><text fill="#000000" font-family="sans-serif" font-size="14" lengthAdjust="spacing" textLength="86" x="147.5" y="59.9951">Data Access</text></g><!--entity First Component--><g id="elem_First Component"><rect fill="#F1F1F1" height="46.2969" rx="2.5" ry="2.5" style="stroke:#181818;stroke-width:0.5;" width="155" x="235" y="7"/><rect fill="#F1F1F1" height="10" style="stroke:#181818;stroke-width:0.5;" width="15" x="370" y="12"/><rect fill="#F1F1F1" height="2" style="stroke:#181818;stroke-width:0.5;" width="4" x="368" y="14"/><rect fill="#F1F1F1" height="2" style="stroke:#181818;stroke-width:0.5;" width="4" x="368" y="18"/><text fill="#000000" font-family="sans-serif" font-size="14" lengthAdjust="spacing" textLength="115" x="250" y="39.9951">First Component</text></g><!--entity HTTP--><g id="elem_HTTP"><ellipse cx="312.5" cy="142.5" fill="#F1F1F1" rx="8" ry="8" style="stroke:#181818;stroke-width:0.5;"/><text fill="#000000" font-family="sans-serif" font-size="14" lengthAdjust="spacing" textLength="37" x="294" y="172.4951">HTTP</text></g><g id="elem_GMN7"><path d="M6,130 L6,155.1328 L135,155.1328 L135,140 L125,130 L6,130 " fill="#FEFFDD" style="stroke:#181818;stroke-width:0.5;"/><path d="M125,130 L125,140 L135,140 L125,130 " fill="#FEFFDD" style="stroke:#181818;stroke-width:1.0;"/><text fill="#000000" font-family="sans-serif" font-size="13" lengthAdjust="spacing" textLength="108" x="12" y="147.0669">Web Service only</text></g><g id="elem_GMN10"><path d="M170.5,130 L170.5,155.1328 A0,0 0 0 0 170.5,155.1328 L268.5,155.1328 A0,0 0 0 0 268.5,155.1328 L268.5,148 L303.23,142.5 L268.5,140 L268.5,140 L258.5,130 L170.5,130 A0,0 0 0 0 170.5,130 " fill="#FEFFDD" style="stroke:#181818;stroke-width:0.5;"/><path d="M258.5,130 L258.5,140 L268.5,140 L258.5,130 " fill="#FEFFDD" style="stroke:#181818;stroke-width:0.5;"/><text fill="#000000" font-family="sans-serif" font-size="13" lengthAdjust="spacing" textLength="77" x="176.5" y="147.0669">Service only</text></g><g id="elem_GMN13"><path d="M425.5,10 L425.5,26 L390.06,30 L425.5,34 L425.5,50.2656 A0,0 0 0 0 425.5,50.2656 L565.5,50.2656 A0,0 0 0 0 565.5,50.2656 L565.5,20 L555.5,10 L425.5,10 A0,0 0 0 0 425.5,10 " fill="#FEFFDD" style="stroke:#181818;stroke-width:0.5;"/><path d="M555.5,10 L555.5,20 L565.5,20 L555.5,10 " fill="#FEFFDD" style="stroke:#181818;stroke-width:0.5;"/><text fill="#000000" font-family="sans-serif" font-size="13" lengthAdjust="spacing" textLength="99" x="431.5" y="27.0669">A note can also</text><text fill="#000000" font-family="sans-serif" font-size="13" lengthAdjust="spacing" textLength="119" x="431.5" y="42.1997">be on several lines</text></g><!--link DA to First Component--><g id="link_DA_First Component"><path d="M199.55,30 C211.32,30 223.08,30 234.85,30 " fill="none" id="DA-First Component" style="stroke:#181818;stroke-width:1.0;"/></g><!--link First Component to HTTP--><g id="link_First Component_HTTP"><path d="M312.5,53.1 C312.5,75.47 312.5,109.36 312.5,128.01 " fill="none" id="First Component-to-HTTP" style="stroke:#181818;stroke-width:1.0;stroke-dasharray:7.0,7.0;"/><polygon fill="#181818" points="312.5,133.28,316.5,124.28,312.5,128.28,308.5,124.28,312.5,133.28" style="stroke:#181818;stroke-width:1.0;"/><text fill="#000000" font-family="sans-serif" font-size="13" lengthAdjust="spacing" textLength="23" x="313.5" y="96.0669">use</text></g><!--link GMN7 to HTTP--><g id="link_GMN7_HTTP"><path d="M88.73,129.9 C108.12,117.34 140.17,98.87 171,91.5 C213.36,81.37 229.45,73.25 269,91.5 C287.6,100.08 301.18,120.97 307.86,133.19 " fill="none" id="GMN7-HTTP" style="stroke:#181818;stroke-width:1.0;stroke-dasharray:7.0,7.0;"/></g><!--SRC=[RSwn2W8n40JGFbynNEzzW8KG368fU60X5djnJmDn8zbuuDzxHYpaR6VUiXEaS1x8Cnf7XM2zPzK6f73M66Unm74JiXQiq-sUXAMSp2n1swwmxReTbdWe6oEfC28F1Mdu5WVkiUSyXkbRalZyYtx0H-HmkLOo7m9OLED9G57JbFJlOoYFd2aY1c4rBEVgNW00]--></g></svg>